<svg xmlns="http://www.w3.org/2000/svg" viewBox="0 0 512 512" width="512" height="512">
  <rect width="512" height="512" rx="128" fill="#1c1917"/>
  <circle cx="256" cy="256" r="140" stroke="#ffffff" stroke-width="16" fill="none"/>
  <circle cx="256" cy="256" r="90" stroke="#ffffff" stroke-width="8" fill="none" stroke-dasharray="10 10"/>
  <!-- Fork on the left -->
  <path d="M160 170v80c0 15 12 27 27 27h3v85h10v-85h3c15 0 27-12 27-27v-80h-6v60h-8v-60h-6v60h-8v-60h-6v60h-8v-60h-6z" fill="#ffffff"/>
  <!-- Knife on the right -->
  <path d="M310 170v100c0 10-5 20-10 30l-5 5v75h12v-75l-5-5c-5-10-10-20-10-30V170h-10z" fill="#ffffff"/>
</svg>
